<?xml version="1.0" encoding="UTF-8" standalone="no"?>
<!-- Created with Inkscape (http://www.inkscape.org/) -->

<svg
   xmlns:dc="http://purl.org/dc/elements/1.1/"
   xmlns:cc="http://creativecommons.org/ns#"
   xmlns:rdf="http://www.w3.org/1999/02/22-rdf-syntax-ns#"
   xmlns:svg="http://www.w3.org/2000/svg"
   xmlns="http://www.w3.org/2000/svg"
   xmlns:sodipodi="http://sodipodi.sourceforge.net/DTD/sodipodi-0.dtd"
   xmlns:inkscape="http://www.inkscape.org/namespaces/inkscape"
   width="210mm"
   height="176mm"
   viewBox="0 0 210 176"
   version="1.1"
   id="svg2163"
   inkscape:version="0.92.2 5c3e80d, 2017-08-06"
   sodipodi:docname="briefcase.svg">
  <defs
     id="defs2157" />
  <sodipodi:namedview
     id="base"
     pagecolor="#ffffff"
     bordercolor="#666666"
     borderopacity="1.0"
     inkscape:pageopacity="0.0"
     inkscape:pageshadow="2"
     inkscape:zoom="0.97386896"
     inkscape:cx="331.3146"
     inkscape:cy="278.4875"
     inkscape:document-units="mm"
     inkscape:current-layer="layer1"
     showgrid="false"
     showborder="true"
     inkscape:window-width="1537"
     inkscape:window-height="975"
     inkscape:window-x="140"
     inkscape:window-y="0"
     inkscape:window-maximized="0" />
  <metadata
     id="metadata2160">
    <rdf:RDF>
      <cc:Work
         rdf:about="">
        <dc:format>image/svg+xml</dc:format>
        <dc:type
           rdf:resource="http://purl.org/dc/dcmitype/StillImage" />
        <dc:title />
      </cc:Work>
    </rdf:RDF>
  </metadata>
  <g
     inkscape:label="Layer 1"
     inkscape:groupmode="layer"
     id="layer1"
     transform="translate(0,-121)">
    <g
       id="g3817"
       transform="matrix(1.3083231,0,0,1.3083231,-1.575764,-90.144746)">
      <ellipse
         style="opacity:1;fill:#b3b3b3;fill-opacity:1;stroke:#000000;stroke-width:0;stroke-miterlimit:4;stroke-dasharray:none;stroke-opacity:1"
         id="ellipse3805"
         cx="81.31311"
         cy="222.72508"
         rx="4.356586"
         ry="4.3852477" />
      <g
         id="g3815">
        <path
           sodipodi:nodetypes="cccccccccssccsccsscccccccccccccccccsccccssccccccccccccccccccccccsscccccccssccscscscsscscccccccccc"
           inkscape:connector-curvature="0"
           id="path3807"
           d="m 6.1230663,291.35872 -0.8636869,-1.4987 -0.1486244,-3.1191 v -48.26018 -48.66668 l 0.4286853,-2.72651 1.0231063,-1.48479 2.0327654,-0.87623 2.382736,-0.13605 h 17.294526 c 23.452811,0 21.498644,0.18098 21.498644,-1.9911 0,-2.71773 1.785541,-7.1404 4.04498,-10.01914 2.181299,-2.77921 4.984327,-4.71776 9.04873,-6.25799 1.58014,-0.59881 2.259226,-0.62688 17.417569,-0.71983 17.54677,-0.10758 18.133166,-0.0589 22.069483,1.83554 3.84664,1.85118 6.83425,4.82273 8.70371,8.65689 1.02922,2.11086 1.83566,4.96842 1.83566,6.50453 0,2.17208 -1.95417,1.9911 21.49865,1.9911 h 18.74021 l 1.97814,0.18916 1.43116,0.82314 0.7826,1.2555 0.2297,1.99343 v 49.62906 48.82765 l -0.0675,2.15979 -0.94475,1.71488 -2.18779,1.13392 -2.20783,0.054 H 81.33129 10.869957 L 7.540705,292.26299 Z M 151.29934,259.70847 v -26.41009 l -1.11651,1.06103 c -3.25432,3.09263 -7.19678,5.33625 -11.55335,6.57491 l -2.36583,0.67265 H 81.33129 26.398911 l -2.365815,-0.67265 c -4.356577,-1.23866 -8.299042,-3.48228 -11.553362,-6.57491 l -1.116514,-1.06103 v 26.41009 24.47696 l 0.343941,1.41723 1.352763,0.51591 h 68.271366 67.45157 l 1.69484,-0.57324 0.82164,-1.78027 z m -14.82703,-24.82565 c 0.86776,-0.17753 2.79254,-0.90548 4.27725,-1.61763 4.56082,-2.18762 7.9385,-6.0678 9.5648,-10.98774 l 0.79506,-2.40523 0.12333,-14.51466 0.10882,-12.80416 -0.45838,-1.2511 -1.19835,-0.45938 H 81.331076 13.002601 l -1.237959,0.55412 -0.442202,1.16577 0.120474,12.64589 c 0.147966,15.53262 0.133888,15.38854 1.886188,19.29319 2.189063,4.8779 7.164129,8.98054 12.474343,10.28688 2.012447,0.49508 108.267475,0.58538 110.668865,0.0941 z m -56.629706,-2.96789 c -2.049131,-0.32375 -3.419368,-1.00791 -5.023195,-2.50811 -2.060182,-1.92706 -2.855141,-3.83455 -2.85747,-6.85637 -0.0011,-2.00163 0.130107,-2.65296 0.822056,-4.06725 0.904676,-1.8491 2.468521,-3.42618 4.439995,-4.47756 1.074856,-0.57322 1.729895,-0.68198 4.1073,-0.68198 2.377405,0 3.032433,0.10882 4.107289,0.68198 1.971474,1.05138 3.535319,2.62846 4.440006,4.47756 1.120014,2.28922 1.169224,5.67216 0.116661,8.01964 -1.6801,3.74706 -6.026493,6.06399 -10.152642,5.41209 z m 3.852937,-6.74085 c 1.122647,-0.94465 1.480774,-2.76872 0.905846,-4.14471 -0.454555,-1.08789 -2.210421,-2.00502 -3.32742,-2.00502 -1.842897,0 -3.842381,2.47108 -3.44606,4.27552 0.276509,1.25892 1.865854,2.81768 3.254984,2.81768 0.790491,0 1.995466,-0.42414 2.61265,-0.94347 z m 22.864099,-42.3696 c -0.43639,-4.81261 -4.37097,-9.28517 -9.287578,-10.55748 -2.627019,-0.67982 -29.254529,-0.67982 -31.88156,0 -4.916595,1.27231 -8.851183,5.74487 -9.287576,10.55748 l 0.52594,1.25096 1.009634,0.53502 h 0.802529 22.890261 23.31249 l 1.18468,-0.0764 0.62562,-0.61146 z"
           style="fill:#000000;stroke-width:0.29773641" />
        <path
           sodipodi:nodetypes="ccsscsscccscssccsssc"
           inkscape:connector-curvature="0"
           id="path3809"
           d="m 12.232361,285.8807 c -0.476021,0.0548 -0.782537,-0.58497 -0.851329,-1.27864 -0.03414,-0.19182 -0.06073,-1.90244 -0.07832,-4.6778 -0.0303,-4.77977 -0.02608,-12.71756 -0.0037,-21.49391 l 0.06417,-25.13198 1.398611,1.14835 c 3.676902,3.01898 5.924803,4.57637 10.43338,6.08304 l 3.248835,1.0857 h 54.887835 54.887837 l 2.85553,-0.93255 c 4.19292,-1.3693 9.52953,-4.46905 11.23786,-6.52746 0.22314,-0.26887 0.77484,-0.67993 0.9224,-0.67993 0.36813,0 0.37652,38.92982 0.0885,49.48805 -0.0435,1.59289 -0.36073,1.7601 -0.41646,1.88242 -0.19133,0.41991 -0.76216,0.9079 -1.26853,1.08442 -0.0636,0.0222 -0.30829,0.1578 -0.97101,0.1776 -11.67823,0.34895 -111.277649,0.31559 -132.168744,-0.0262 -1.068463,-0.0175 -2.369324,0.0409 -3.00121,0.0222 -0.767303,-0.0227 -1.215313,-0.19903 -1.265684,-0.22334 z"
           style="opacity:1;fill:#683818;fill-opacity:1;stroke:#000000;stroke-width:0;stroke-miterlimit:4;stroke-dasharray:none;stroke-opacity:1" />
        <path
           sodipodi:nodetypes="cssssscscssscssssscsccscccccsccsscc"
           inkscape:connector-curvature="0"
           id="path3811"
           d="m 28.329087,234.91236 c -3.40714,-0.1691 -3.642069,-0.22605 -6.233567,-1.51099 -2.016116,-0.99965 -3.246461,-1.88334 -4.895013,-3.51584 -2.420484,-2.3969 -3.545317,-4.12331 -4.683638,-7.18849 -0.699365,-1.88319 -0.768672,-2.59717 -0.997738,-10.27835 -0.13539,-4.54002 -0.255113,-10.97172 -0.266046,-14.29266 -0.01858,-5.64499 0.01992,-6.07788 0.591567,-6.64953 0.172351,-0.17235 0.125972,-0.52581 1.821983,-0.61459 4.285588,-0.22432 18.605015,0.005 67.654097,0.008 16.988538,0.001 32.605058,-0.0157 44.705858,-0.0234 5.13449,-0.003 9.65817,0.10597 13.3491,0.0389 4.95971,-0.0902 8.58347,-0.16874 10.21716,-0.0589 0.69051,0.0464 1.02549,0.19307 0.95554,0.27894 0.11014,0.07 0.32431,0.11523 0.44446,0.32072 0.0977,0.16704 0.10573,0.48124 0.16699,0.66821 0.0192,0.0586 0.14103,0.24457 0.18415,0.53709 0.0259,0.17568 -0.0198,0.38979 -0.012,0.63781 0.0719,2.27793 -0.0115,7.56368 -0.0766,13.49369 l -0.15286,13.9105 -0.8815,2.14008 c -1.1997,2.91258 -3.26591,5.96772 -5.17502,7.6519 -2.05841,1.81589 -6.55837,4.0503 -8.92402,4.43113 -0.92455,0.14884 -23.56744,0.30716 -47.89185,0.31913 -27.225482,0.0134 -56.557497,-0.13722 -59.901062,-0.30317 z m 57.110438,-3.94638 c 1.997254,-1.03065 3.344273,-2.3774 4.276397,-4.27554 0.726051,-1.4785 0.850076,-2.10102 0.833352,-4.18282 -0.02429,-3.02556 -0.750221,-4.69978 -2.916203,-6.7258 -2.073225,-1.93926 -3.072128,-2.29364 -6.455381,-2.29023 -2.576471,0.003 -2.981681,0.0854 -4.400535,0.89921 -1.881486,1.07914 -3.019973,2.36748 -4.025867,4.55576 -0.65622,1.42759 -0.734703,1.95396 -0.61537,4.12729 0.186773,3.40157 1.208274,5.1898 4.290313,7.51059 1.883885,1.41857 6.61553,1.61887 9.013294,0.38154 z"
           style="opacity:1;fill:#814e2c;fill-opacity:1;stroke:#000000;stroke-width:0;stroke-miterlimit:4;stroke-dasharray:none;stroke-opacity:1" />
        <path
           sodipodi:nodetypes="ccccccccc"
           inkscape:connector-curvature="0"
           id="path3813"
           d="m 11.722151,285.7078 -0.278409,-0.6843 -0.08053,-0.83807 -0.01368,-25.66934 12.123975,13.8705 12.758627,13.57301 -22.983568,0.15804 -0.779383,-0.13459 z"
           inkscape:transform-center-y="0.55588269"
           inkscape:transform-center-x="-3.0737387"
           style="opacity:1;fill:#4e1f00;fill-opacity:1;stroke:#000000;stroke-width:0;stroke-miterlimit:4;stroke-dasharray:none;stroke-opacity:1" />
      </g>
    </g>
    <path
       style="fill:#23ba12;stroke-width:0.13392101;fill-opacity:1"
       d="m 84.97694,273.27866 c -0.814041,-0.36975 -1.288907,-1.02412 -3.331726,-4.59119 -7.456996,-13.02105 -13.581624,-22.23278 -19.707401,-29.64088 -2.806909,-3.39448 -4.562808,-5.27881 -9.359486,-10.04407 -2.669121,-2.65164 -4.96358,-5.03209 -5.098802,-5.28989 -0.317673,-0.60563 -0.319087,-2.0528 -0.0031,-3.14713 0.959043,-3.32114 3.981806,-4.92856 8.439734,-4.488 5.060997,0.50017 11.944128,3.07269 22.836322,8.53495 2.391316,1.1992 4.416646,2.18037 4.500727,2.18037 0.08409,0 0.95998,-0.94879 1.946439,-2.10842 14.849333,-17.4561 32.985413,-36.26773 44.586743,-46.24756 6.52985,-5.61717 12.1424,-9.54306 16.1559,-11.30075 2.4582,-1.07656 3.45095,-1.31194 5.53388,-1.31213 1.56026,-1.5e-4 1.91801,0.0418 2.61146,0.30609 1.05408,0.40177 1.63381,0.77575 2.23635,1.44269 0.86335,0.95563 0.97776,1.28003 0.97776,2.77237 0,1.29112 -0.018,1.37287 -0.50161,2.27665 -0.75412,1.40935 -2.44099,3.21109 -8.6136,9.20018 -10.9121,10.58766 -17.70428,18.20307 -25.22786,28.28556 -12.9051,17.29436 -23.230764,35.95701 -32.829323,59.33585 -1.088124,2.65029 -1.505947,3.31127 -2.387159,3.77638 -0.746099,0.39379 -1.97059,0.41988 -2.765272,0.0589 z"
       id="path951"
       inkscape:connector-curvature="0" />
  </g>
</svg>
